<svg width="100" height="100" viewBox="0 0 100 100" fill="none" xmlns="http://www.w3.org/2000/svg">
  <rect width="100" height="100" rx="22" fill="#111"/>
  <ellipse cx="50" cy="52" rx="42" ry="34" fill="#F0EDE6"/>
  <ellipse cx="19" cy="24" rx="12" ry="11" fill="#777"/>
  <ellipse cx="81" cy="24" rx="12" ry="11" fill="#777"/>
  <ellipse cx="19" cy="25" rx="7" ry="6.5" fill="#aaa"/>
  <ellipse cx="81" cy="25" rx="7" ry="6.5" fill="#aaa"/>
  <path d="M 33 74 Q 24 60 20 46 Q 17 33 20 22" stroke="#111" stroke-width="19" stroke-linecap="round" fill="none"/>
  <path d="M 67 74 Q 76 60 80 46 Q 83 33 80 22" stroke="#111" stroke-width="19" stroke-linecap="round" fill="none"/>
  <ellipse cx="50" cy="40" rx="11" ry="18" fill="#F0EDE6"/>
  <ellipse cx="11" cy="52" rx="13" ry="19" fill="#F0EDE6"/>
  <ellipse cx="89" cy="52" rx="13" ry="19" fill="#F0EDE6"/>
  <ellipse cx="50" cy="70" rx="20" ry="14" fill="#E8E4DC"/>
  <circle cx="29" cy="48" r="10.5" fill="white"/>
  <circle cx="71" cy="48" r="10.5" fill="white"/>
  <circle cx="30" cy="49" r="7" fill="#0d0d0d"/>
  <circle cx="70" cy="49" r="7" fill="#0d0d0d"/>
  <circle cx="32.5" cy="47" r="2.5" fill="white"/>
  <circle cx="72.5" cy="47" r="2.5" fill="white"/>
  <ellipse cx="50" cy="67" rx="9" ry="7" fill="#111"/>
  <ellipse cx="47" cy="65" rx="3" ry="2.2" fill="#2a2a2a"/>
  <path d="M 41 73 Q 50 81 59 73" stroke="#999" stroke-width="2.5" stroke-linecap="round" fill="none"/>
</svg>
